<svg width="400" height="400" viewBox="0 0 400 400" fill="none" xmlns="http://www.w3.org/2000/svg">
  <rect width="400" height="400" rx="80" fill="#2563EB"/>
  <path d="M200 80C140 80 120 130 120 180C120 250 160 320 200 320C240 320 280 250 280 180C280 130 260 80 200 80ZM200 280C170 280 150 230 150 180C150 140 165 110 200 110C235 110 250 140 250 180C250 230 230 280 200 280Z" fill="white"/>
  <path d="M200 130C180 130 170 150 170 170C170 190 180 210 200 210C220 210 230 190 230 170C230 150 220 130 200 130ZM200 190C190 190 185 180 185 170C185 160 190 150 200 150C210 150 215 160 215 170C215 180 210 190 200 190Z" fill="white"/>
  <rect x="180" y="240" width="40" height="60" rx="10" fill="white"/>
</svg>
